<svg width="269" height="195" viewBox="0 0 269 195" fill="none" xmlns="http://www.w3.org/2000/svg">
<path d="M25.792 62H5.568C4.75733 62 4.16 61.8293 3.776 61.488C3.43467 61.104 3.264 60.5067 3.264 59.696V52.208C3.264 51.3973 3.43467 50.8213 3.776 50.48C4.16 50.096 4.75733 49.904 5.568 49.904H22.784C23.3387 49.904 23.744 49.7333 24 49.392C24.2987 49.008 24.448 48.56 24.448 48.048C24.448 47.3227 24.2987 46.7893 24 46.448C23.744 46.1067 23.3387 45.9147 22.784 45.872L13.184 44.528C10.1973 44.1013 7.78667 43.12 5.952 41.584C4.16 40.048 3.264 37.488 3.264 33.904V27.184C3.264 23.5573 4.43733 20.784 6.784 18.864C9.13067 16.9013 12.3733 15.92 16.512 15.92H34.432C35.2427 15.92 35.8187 16.112 36.16 16.496C36.544 16.8373 36.736 17.4133 36.736 18.224V25.84C36.736 26.6507 36.544 27.248 36.16 27.632C35.8187 27.9733 35.2427 28.144 34.432 28.144H19.52C18.9653 28.144 18.5387 28.336 18.24 28.72C17.9413 29.0613 17.792 29.5093 17.792 30.064C17.792 30.6187 17.9413 31.088 18.24 31.472C18.5387 31.856 18.9653 32.0693 19.52 32.112L29.056 33.392C32.0427 33.8187 34.4533 34.8 36.288 36.336C38.1227 37.872 39.04 40.432 39.04 44.016V50.736C39.04 54.3627 37.8453 57.1573 35.456 59.12C33.1093 61.04 29.888 62 25.792 62ZM30.976 21.68H16.768C14.8053 21.68 13.2267 22.2347 12.032 23.344C10.8373 24.4107 10.24 25.7973 10.24 27.504V32.752C10.24 34.5013 10.5813 35.7173 11.264 36.4C11.9893 37.04 12.9067 37.4667 14.016 37.68L27.52 40.432C28.7147 40.688 29.6533 41.2 30.336 41.968C31.0613 42.6933 31.424 44.0587 31.424 46.064V49.776C31.424 51.4827 30.8267 52.8907 29.632 54C28.48 55.0667 26.9227 55.6 24.96 55.6H9.024V56.24H24.96C27.136 56.24 28.864 55.6427 30.144 54.448C31.424 53.2107 32.064 51.6533 32.064 49.776V46.064C32.064 43.8453 31.6373 42.3093 30.784 41.456C29.9733 40.6027 28.928 40.048 27.648 39.792L14.144 37.04C13.1627 36.8693 12.3733 36.4853 11.776 35.888C11.1787 35.2907 10.88 34.2453 10.88 32.752V27.504C10.88 26.0107 11.4133 24.7733 12.48 23.792C13.5467 22.8107 14.976 22.32 16.768 22.32H30.976V21.68ZM85.081 49.904C85.081 51.8667 84.7823 53.6587 84.185 55.28C83.6303 56.8587 82.6063 58.224 81.113 59.376C79.6623 60.4853 77.6357 61.36 75.033 62C72.473 62.64 69.209 62.96 65.241 62.96C61.273 62.96 57.9877 62.64 55.385 62C52.7823 61.36 50.7343 60.4853 49.241 59.376C47.7903 58.224 46.7663 56.8587 46.169 55.28C45.6143 53.6587 45.337 51.8667 45.337 49.904V28.08C45.337 26.1173 45.6143 24.3467 46.169 22.768C46.7663 21.1467 47.7903 19.76 49.241 18.608C50.7343 17.456 52.7823 16.56 55.385 15.92C57.9877 15.28 61.273 14.96 65.241 14.96C69.209 14.96 72.473 15.28 75.033 15.92C77.6357 16.56 79.6623 17.456 81.113 18.608C82.6063 19.76 83.6303 21.1467 84.185 22.768C84.7823 24.3467 85.081 26.1173 85.081 28.08V49.904ZM78.105 48.432V29.552C78.105 26.992 77.1877 24.9227 75.353 23.344C73.5183 21.7227 70.105 20.912 65.113 20.912C60.121 20.912 56.729 21.7227 54.937 23.344C53.145 24.9227 52.249 26.992 52.249 29.552V48.432C52.249 50.992 53.145 53.0827 54.937 54.704C56.729 56.2827 60.121 57.072 65.113 57.072C70.105 57.072 73.5183 56.2827 75.353 54.704C77.1877 53.0827 78.105 50.992 78.105 48.432ZM52.889 48.432V29.552C52.889 27.1627 53.7423 25.2427 55.449 23.792C57.1557 22.2987 60.377 21.552 65.113 21.552C69.849 21.552 73.0917 22.2987 74.841 23.792C76.5903 25.2427 77.465 27.1627 77.465 29.552V48.432C77.465 50.8213 76.5903 52.7627 74.841 54.256C73.0917 55.7067 69.849 56.432 65.113 56.432C60.377 56.432 57.1557 55.7067 55.449 54.256C53.7423 52.7627 52.889 50.8213 52.889 48.432ZM59.865 47.6C59.865 48.4533 60.185 49.1787 60.825 49.776C61.465 50.3307 62.937 50.608 65.241 50.608C67.545 50.608 69.017 50.3307 69.657 49.776C70.297 49.1787 70.617 48.4533 70.617 47.6V30.384C70.617 29.5733 70.297 28.8907 69.657 28.336C69.017 27.7387 67.545 27.44 65.241 27.44C62.937 27.44 61.465 27.7387 60.825 28.336C60.185 28.8907 59.865 29.5733 59.865 30.384V47.6ZM132.461 49.904C132.461 51.8667 132.162 53.6587 131.565 55.28C131.01 56.8587 129.986 58.224 128.493 59.376C127.042 60.4853 125.037 61.36 122.477 62C119.917 62.64 116.653 62.96 112.685 62.96C108.717 62.96 105.453 62.64 102.893 62C100.333 61.36 98.3058 60.4853 96.8125 59.376C95.3618 58.224 94.3378 56.8587 93.7405 55.28C93.1858 53.6587 92.9085 51.8667 92.9085 49.904V18.224C92.9085 17.4133 93.0792 16.8373 93.4205 16.496C93.8045 16.112 94.4018 15.92 95.2125 15.92H105.26C106.071 15.92 106.647 16.112 106.989 16.496C107.373 16.8373 107.565 17.4133 107.565 18.224V47.408C107.565 48.2613 107.885 48.9867 108.525 49.584C109.165 50.1387 110.594 50.416 112.813 50.416C115.074 50.416 116.525 50.1387 117.165 49.584C117.805 48.9867 118.125 48.2613 118.125 47.408V18.224C118.125 17.4133 118.295 16.8373 118.637 16.496C119.021 16.112 119.618 15.92 120.429 15.92H130.157C130.967 15.92 131.543 16.112 131.885 16.496C132.269 16.8373 132.461 17.4133 132.461 18.224V49.904ZM99.9485 21.68V48.368C99.9485 50.928 100.823 53.0187 102.573 54.64C104.365 56.2187 107.757 57.008 112.749 57.008C117.741 57.008 121.133 56.2187 122.925 54.64C124.717 53.0187 125.613 50.928 125.613 48.368V21.68H124.972V48.368C124.972 50.7573 124.119 52.6987 122.413 54.192C120.706 55.6427 117.485 56.368 112.749 56.368C108.013 56.368 104.791 55.6427 103.085 54.192C101.421 52.6987 100.589 50.7573 100.589 48.368V21.68H99.9485ZM149.427 22.192C149.213 21.9787 149.043 21.8293 148.915 21.744C148.787 21.6587 148.637 21.616 148.467 21.616C148.296 21.616 148.125 21.68 147.955 21.808C147.784 21.936 147.699 22.128 147.699 22.384V56.24H148.339V22.512C148.339 22.4693 148.339 22.4267 148.339 22.384C148.381 22.3413 148.424 22.32 148.467 22.32C148.509 22.32 148.552 22.3413 148.595 22.384C148.68 22.4267 148.744 22.4693 148.787 22.512L172.979 49.648V56.24H173.619V21.68H172.979V48.688L149.427 22.192ZM152.883 62H143.283C142.472 62 141.875 61.8293 141.491 61.488C141.149 61.104 140.979 60.5067 140.979 59.696V18.224C140.979 17.4133 141.149 16.8373 141.491 16.496C141.875 16.112 142.472 15.92 143.283 15.92H149.939C150.749 15.92 151.432 16.048 151.987 16.304C152.584 16.56 153.16 17.008 153.715 17.648L166.131 31.856V18.224C166.131 17.4133 166.301 16.8373 166.643 16.496C167.027 16.112 167.624 15.92 168.435 15.92H178.035C178.845 15.92 179.421 16.112 179.763 16.496C180.147 16.8373 180.339 17.4133 180.339 18.224V59.696C180.339 60.5067 180.147 61.104 179.763 61.488C179.421 61.8293 178.845 62 178.035 62H168.435C167.624 62 167.027 61.8293 166.643 61.488C166.301 61.104 166.131 60.5067 166.131 59.696V51.824L155.187 38.576V59.696C155.187 60.5067 154.995 61.104 154.611 61.488C154.269 61.8293 153.693 62 152.883 62ZM213.038 62H191.47C190.659 62 190.062 61.8293 189.678 61.488C189.337 61.104 189.166 60.5067 189.166 59.696V18.224C189.166 17.4133 189.337 16.8373 189.678 16.496C190.062 16.112 190.659 15.92 191.47 15.92H213.038C218.371 15.92 222.318 16.9867 224.878 19.12C227.481 21.2533 228.782 24.5387 228.782 28.976V48.944C228.782 53.3813 227.481 56.6667 224.878 58.8C222.318 60.9333 218.371 62 213.038 62ZM196.142 56.24H211.63C213.806 56.24 215.577 56.0267 216.942 55.6C218.307 55.1307 219.353 54.512 220.078 53.744C220.803 52.976 221.273 52.0587 221.486 50.992C221.742 49.9253 221.87 48.7733 221.87 47.536V30.576C221.87 29.3387 221.742 28.1867 221.486 27.12C221.23 26.0107 220.739 25.072 220.014 24.304C219.289 23.4933 218.243 22.8533 216.878 22.384C215.555 21.9147 213.806 21.68 211.63 21.68H196.142V56.24ZM211.63 22.32C213.635 22.32 215.257 22.5333 216.494 22.96C217.774 23.3867 218.755 23.9627 219.438 24.688C220.121 25.4133 220.59 26.288 220.846 27.312C221.102 28.336 221.23 29.424 221.23 30.576V47.536C221.23 48.688 221.102 49.776 220.846 50.8C220.633 51.7813 220.185 52.6347 219.502 53.36C218.819 54.0427 217.838 54.5973 216.558 55.024C215.321 55.408 213.678 55.6 211.63 55.6H196.782V22.32H211.63ZM203.694 28.144V49.904H211.31C212.334 49.904 213.081 49.648 213.55 49.136C214.062 48.624 214.318 47.8347 214.318 46.768V31.216C214.318 30.1493 214.062 29.3813 213.55 28.912C213.081 28.4 212.334 28.144 211.31 28.144H203.694ZM26.176 139H15.808C14.9973 139 14.4 138.829 14.016 138.488C13.6747 138.104 13.504 137.507 13.504 136.696V105.272H4.096C3.28533 105.272 2.688 105.101 2.304 104.76C1.96267 104.376 1.792 103.779 1.792 102.968V95.224C1.792 94.4133 1.96267 93.8373 2.304 93.496C2.688 93.112 3.28533 92.92 4.096 92.92H37.888C38.6987 92.92 39.2747 93.112 39.616 93.496C40 93.8373 40.192 94.4133 40.192 95.224V102.968C40.192 103.779 40 104.376 39.616 104.76C39.2747 105.101 38.6987 105.272 37.888 105.272H28.48V136.696C28.48 137.507 28.288 138.104 27.904 138.488C27.5627 138.829 26.9867 139 26.176 139ZM20.672 133.24H21.312V99.32H34.432V98.68H7.552V99.32H20.672V133.24ZM85.1435 126.904C85.1435 128.867 84.8448 130.659 84.2475 132.28C83.6928 133.859 82.6688 135.224 81.1755 136.376C79.7248 137.485 77.6982 138.36 75.0955 139C72.5355 139.64 69.2715 139.96 65.3035 139.96C61.3355 139.96 58.0502 139.64 55.4475 139C52.8448 138.36 50.7968 137.485 49.3035 136.376C47.8528 135.224 46.8288 133.859 46.2315 132.28C45.6768 130.659 45.3995 128.867 45.3995 126.904V105.08C45.3995 103.117 45.6768 101.347 46.2315 99.768C46.8288 98.1467 47.8528 96.76 49.3035 95.608C50.7968 94.456 52.8448 93.56 55.4475 92.92C58.0502 92.28 61.3355 91.96 65.3035 91.96C69.2715 91.96 72.5355 92.28 75.0955 92.92C77.6982 93.56 79.7248 94.456 81.1755 95.608C82.6688 96.76 83.6928 98.1467 84.2475 99.768C84.8448 101.347 85.1435 103.117 85.1435 105.08V126.904ZM78.1675 125.432V106.552C78.1675 103.992 77.2502 101.923 75.4155 100.344C73.5808 98.7227 70.1675 97.912 65.1755 97.912C60.1835 97.912 56.7915 98.7227 54.9995 100.344C53.2075 101.923 52.3115 103.992 52.3115 106.552V125.432C52.3115 127.992 53.2075 130.083 54.9995 131.704C56.7915 133.283 60.1835 134.072 65.1755 134.072C70.1675 134.072 73.5808 133.283 75.4155 131.704C77.2502 130.083 78.1675 127.992 78.1675 125.432ZM52.9515 125.432V106.552C52.9515 104.163 53.8048 102.243 55.5115 100.792C57.2182 99.2987 60.4395 98.552 65.1755 98.552C69.9115 98.552 73.1542 99.2987 74.9035 100.792C76.6528 102.243 77.5275 104.163 77.5275 106.552V125.432C77.5275 127.821 76.6528 129.763 74.9035 131.256C73.1542 132.707 69.9115 133.432 65.1755 133.432C60.4395 133.432 57.2182 132.707 55.5115 131.256C53.8048 129.763 52.9515 127.821 52.9515 125.432ZM59.9275 124.6C59.9275 125.453 60.2475 126.179 60.8875 126.776C61.5275 127.331 62.9995 127.608 65.3035 127.608C67.6075 127.608 69.0795 127.331 69.7195 126.776C70.3595 126.179 70.6795 125.453 70.6795 124.6V107.384C70.6795 106.573 70.3595 105.891 69.7195 105.336C69.0795 104.739 67.6075 104.44 65.3035 104.44C62.9995 104.44 61.5275 104.739 60.8875 105.336C60.2475 105.891 59.9275 106.573 59.9275 107.384V124.6ZM116.971 116.92H114.091C113.408 116.92 112.854 117.133 112.427 117.56C112 117.944 111.51 118.733 110.955 119.928L105.707 131.704C105.536 132.131 105.28 132.387 104.939 132.472C104.598 132.557 104.278 132.6 103.979 132.6H103.659C103.318 132.6 102.998 132.472 102.699 132.216C102.4 131.917 102.23 131.597 102.187 131.256L100.587 123.96C100.416 123.149 100.31 122.104 100.267 120.824C100.267 119.544 100.267 118.435 100.267 117.496V98.68H99.627V117.56C99.627 118.499 99.627 119.608 99.627 120.888C99.6697 122.168 99.7763 123.213 99.947 124.024L101.547 131.256C101.718 131.939 101.974 132.451 102.315 132.792C102.699 133.091 103.147 133.24 103.659 133.24H104.107C104.491 133.24 104.896 133.176 105.323 133.048C105.75 132.877 106.048 132.579 106.219 132.152L111.467 120.248C111.979 119.096 112.406 118.371 112.747 118.072C113.131 117.731 113.579 117.56 114.091 117.56H116.971C117.483 117.56 117.91 117.731 118.251 118.072C118.635 118.371 119.083 119.096 119.595 120.248L124.843 132.152C125.014 132.579 125.312 132.877 125.739 133.048C126.166 133.176 126.571 133.24 126.955 133.24H127.403C127.915 133.24 128.342 133.091 128.683 132.792C129.067 132.451 129.344 131.939 129.515 131.256L131.115 124.024C131.286 123.213 131.371 122.168 131.371 120.888C131.414 119.608 131.435 118.499 131.435 117.56V98.68H130.795V117.496C130.795 118.435 130.774 119.544 130.731 120.824C130.731 122.104 130.646 123.149 130.475 123.96L128.875 131.256C128.832 131.597 128.662 131.917 128.363 132.216C128.064 132.472 127.744 132.6 127.403 132.6H127.083C126.784 132.6 126.464 132.557 126.123 132.472C125.782 132.387 125.526 132.131 125.355 131.704L120.107 119.928C119.552 118.733 119.062 117.944 118.635 117.56C118.208 117.133 117.654 116.92 116.971 116.92ZM126.379 92.92H135.915C136.726 92.92 137.302 93.112 137.643 93.496C138.027 93.8373 138.219 94.4133 138.219 95.224V120.056C138.219 121.421 138.155 122.701 138.027 123.896C137.942 125.048 137.622 126.413 137.067 127.992L133.867 136.696C133.654 137.336 133.334 137.891 132.907 138.36C132.523 138.787 131.99 139 131.307 139H122.795C122.112 139 121.494 138.851 120.939 138.552C120.384 138.253 120.022 137.763 119.851 137.08L116.907 126.648C116.779 126.221 116.608 125.944 116.395 125.816C116.224 125.645 116.011 125.56 115.755 125.56H115.179C114.923 125.56 114.688 125.645 114.475 125.816C114.304 125.944 114.155 126.221 114.027 126.648L111.019 137.08C110.848 137.72 110.528 138.211 110.059 138.552C109.59 138.851 109.014 139 108.331 139H99.883C99.2003 139 98.603 138.787 98.091 138.36C97.6217 137.933 97.2803 137.379 97.067 136.696L93.867 127.864C93.3123 126.285 92.971 124.92 92.843 123.768C92.7577 122.573 92.715 121.293 92.715 119.928V95.224C92.715 94.4133 92.8857 93.8373 93.227 93.496C93.611 93.112 94.2083 92.92 95.019 92.92H104.875C105.686 92.92 106.262 93.112 106.603 93.496C106.987 93.8373 107.179 94.4133 107.179 95.224V118.776L110.891 110.712C111.232 109.987 111.68 109.475 112.235 109.176C112.79 108.877 113.472 108.728 114.283 108.728H116.971C117.782 108.728 118.464 108.877 119.019 109.176C119.574 109.475 120.022 109.987 120.363 110.712L124.075 118.776V95.224C124.075 94.4133 124.246 93.8373 124.587 93.496C124.971 93.112 125.568 92.92 126.379 92.92ZM154.927 99.192C154.713 98.9787 154.543 98.8293 154.415 98.744C154.287 98.6587 154.137 98.616 153.967 98.616C153.796 98.616 153.625 98.68 153.455 98.808C153.284 98.936 153.199 99.128 153.199 99.384V133.24H153.839V99.512C153.839 99.4693 153.839 99.4267 153.839 99.384C153.881 99.3413 153.924 99.32 153.967 99.32C154.009 99.32 154.052 99.3413 154.095 99.384C154.18 99.4267 154.244 99.4693 154.287 99.512L178.479 126.648V133.24H179.119V98.68H178.479V125.688L154.927 99.192ZM158.383 139H148.783C147.972 139 147.375 138.829 146.991 138.488C146.649 138.104 146.479 137.507 146.479 136.696V95.224C146.479 94.4133 146.649 93.8373 146.991 93.496C147.375 93.112 147.972 92.92 148.783 92.92H155.439C156.249 92.92 156.932 93.048 157.487 93.304C158.084 93.56 158.66 94.008 159.215 94.648L171.631 108.856V95.224C171.631 94.4133 171.801 93.8373 172.143 93.496C172.527 93.112 173.124 92.92 173.935 92.92H183.535C184.345 92.92 184.921 93.112 185.263 93.496C185.647 93.8373 185.839 94.4133 185.839 95.224V136.696C185.839 137.507 185.647 138.104 185.263 138.488C184.921 138.829 184.345 139 183.535 139H173.935C173.124 139 172.527 138.829 172.143 138.488C171.801 138.104 171.631 137.507 171.631 136.696V128.824L160.687 115.576V136.696C160.687 137.507 160.495 138.104 160.111 138.488C159.769 138.829 159.193 139 158.383 139Z" fill="#FF5C00"/>
<path d="M7.227 186.396C5.731 186.396 4.455 186.088 3.399 185.472C2.343 184.856 1.474 183.943 0.792 182.733L3.432 180.786C3.872 181.578 4.378 182.161 4.95 182.535C5.522 182.887 6.138 183.063 6.798 183.063C7.81 183.063 8.569 182.755 9.075 182.139C9.581 181.523 9.834 180.445 9.834 178.905V164.418H13.662V179.235C13.662 180.533 13.442 181.732 13.002 182.832C12.562 183.91 11.869 184.779 10.923 185.439C9.977 186.077 8.745 186.396 7.227 186.396ZM23.5336 186.396C21.7956 186.396 20.5306 185.835 19.7386 184.713C18.9466 183.591 18.5506 182.007 18.5506 179.961V169.797H22.3456V179.466C22.3456 180.808 22.5436 181.754 22.9396 182.304C23.3356 182.854 23.9736 183.129 24.8536 183.129C25.5576 183.129 26.1736 182.953 26.7016 182.601C27.2516 182.249 27.8346 181.677 28.4506 180.885V169.797H32.2456V186H29.1436L28.8466 183.624H28.7476C28.0436 184.46 27.2736 185.131 26.4376 185.637C25.6016 186.143 24.6336 186.396 23.5336 186.396ZM40.7486 186.396C39.4066 186.396 38.4496 185.989 37.8776 185.175C37.3276 184.361 37.0526 183.25 37.0526 181.842V162.702H40.8476V182.04C40.8476 182.502 40.9356 182.832 41.1116 183.03C41.2876 183.206 41.4746 183.294 41.6726 183.294C41.7606 183.294 41.8376 183.294 41.9036 183.294C41.9916 183.272 42.1126 183.25 42.2666 183.228L42.7616 186.066C42.5416 186.154 42.2556 186.231 41.9036 186.297C41.5736 186.363 41.1886 186.396 40.7486 186.396ZM47.1005 192.666C46.6605 192.666 46.2755 192.633 45.9455 192.567C45.6155 192.501 45.2965 192.424 44.9885 192.336L45.6815 189.366C45.8355 189.41 46.0115 189.454 46.2095 189.498C46.4295 189.564 46.6385 189.597 46.8365 189.597C47.6945 189.597 48.3765 189.333 48.8825 188.805C49.4105 188.299 49.8065 187.639 50.0705 186.825L50.3675 185.802L43.9985 169.797H47.8595L50.6645 177.75C50.9065 178.454 51.1375 179.202 51.3575 179.994C51.5995 180.764 51.8415 181.534 52.0835 182.304H52.2155C52.4135 181.556 52.6115 180.797 52.8095 180.027C53.0295 179.235 53.2385 178.476 53.4365 177.75L55.8785 169.797H59.5415L53.6675 186.726C52.9855 188.552 52.1605 189.993 51.1925 191.049C50.2245 192.127 48.8605 192.666 47.1005 192.666ZM68.9899 186V182.898H73.6759V169.104H69.8149V166.728C70.8489 166.53 71.7509 166.299 72.5209 166.035C73.2909 165.749 74.0059 165.408 74.6659 165.012H77.5039V182.898H81.6289V186H68.9899ZM91.4198 186.396C89.7258 186.396 88.2958 186.11 87.1298 185.538C85.9858 184.944 85.0288 184.262 84.2588 183.492L86.0078 181.05C86.6458 181.644 87.3608 182.172 88.1528 182.634C88.9448 183.074 89.8688 183.294 90.9248 183.294C92.0908 183.294 93.0588 182.942 93.8288 182.238C94.5988 181.534 94.9838 180.544 94.9838 179.268C94.9838 178.014 94.6318 177.046 93.9278 176.364C93.2238 175.682 92.2888 175.341 91.1228 175.341C90.4408 175.341 89.8688 175.44 89.4068 175.638C88.9448 175.814 88.3948 176.111 87.7568 176.529L85.9418 175.374L86.5688 165.012H97.7888V168.213H89.8688L89.4398 173.295C89.8798 173.075 90.3088 172.91 90.7268 172.8C91.1668 172.668 91.6618 172.602 92.2118 172.602C93.4218 172.602 94.5218 172.833 95.5118 173.295C96.5018 173.757 97.2938 174.472 97.8878 175.44C98.5038 176.408 98.8118 177.651 98.8118 179.169C98.8118 180.687 98.4598 181.985 97.7558 183.063C97.0738 184.141 96.1718 184.966 95.0498 185.538C93.9278 186.11 92.7178 186.396 91.4198 186.396ZM101.772 179.07V176.298H109.626V179.07H101.772ZM113.463 186V182.898H118.149V169.104H114.288V166.728C115.322 166.53 116.224 166.299 116.994 166.035C117.764 165.749 118.479 165.408 119.139 165.012H121.977V182.898H126.102V186H113.463ZM133.483 186C133.615 183.514 133.879 181.292 134.275 179.334C134.671 177.354 135.276 175.473 136.09 173.691C136.904 171.909 137.982 170.083 139.324 168.213H129.391V165.012H143.482V167.322C142.25 168.84 141.249 170.292 140.479 171.678C139.731 173.064 139.137 174.472 138.697 175.902C138.279 177.31 137.971 178.839 137.773 180.489C137.575 182.117 137.432 183.954 137.344 186H133.483ZM147.234 192.006L146.409 189.927C147.487 189.509 148.312 188.937 148.884 188.211C149.478 187.507 149.764 186.748 149.742 185.934C149.698 185.934 149.643 185.934 149.577 185.934C149.533 185.934 149.489 185.934 149.445 185.934C148.807 185.934 148.235 185.736 147.729 185.34C147.245 184.922 147.003 184.339 147.003 183.591C147.003 182.887 147.256 182.326 147.762 181.908C148.268 181.468 148.862 181.248 149.544 181.248C150.446 181.248 151.139 181.589 151.623 182.271C152.129 182.953 152.382 183.91 152.382 185.142C152.382 186.748 151.931 188.145 151.029 189.333C150.127 190.543 148.862 191.434 147.234 192.006ZM161.807 186V183.789C163.765 181.897 165.448 180.214 166.856 178.74C168.286 177.244 169.386 175.891 170.156 174.681C170.926 173.449 171.311 172.305 171.311 171.249C171.311 170.149 171.014 169.269 170.42 168.609C169.826 167.949 168.968 167.619 167.846 167.619C167.032 167.619 166.284 167.85 165.602 168.312C164.942 168.774 164.326 169.324 163.754 169.962L161.642 167.85C162.61 166.816 163.611 166.024 164.645 165.474C165.679 164.902 166.911 164.616 168.341 164.616C170.365 164.616 171.971 165.199 173.159 166.365C174.369 167.531 174.974 169.093 174.974 171.051C174.974 172.283 174.622 173.548 173.918 174.846C173.236 176.122 172.312 177.431 171.146 178.773C170.002 180.115 168.737 181.523 167.351 182.997C167.901 182.953 168.495 182.909 169.133 182.865C169.771 182.799 170.343 182.766 170.849 182.766H175.997V186H161.807ZM185.92 186.396C183.742 186.396 182.004 185.45 180.706 183.558C179.43 181.666 178.792 178.949 178.792 175.407C178.792 171.865 179.43 169.181 180.706 167.355C182.004 165.529 183.742 164.616 185.92 164.616C188.098 164.616 189.825 165.529 191.101 167.355C192.399 169.181 193.048 171.865 193.048 175.407C193.048 178.949 192.399 181.666 191.101 183.558C189.825 185.45 188.098 186.396 185.92 186.396ZM185.92 183.426C186.602 183.426 187.207 183.173 187.735 182.667C188.263 182.139 188.67 181.292 188.956 180.126C189.264 178.96 189.418 177.387 189.418 175.407C189.418 173.427 189.264 171.865 188.956 170.721C188.67 169.577 188.263 168.774 187.735 168.312C187.207 167.828 186.602 167.586 185.92 167.586C185.26 167.586 184.666 167.828 184.138 168.312C183.61 168.774 183.192 169.577 182.884 170.721C182.576 171.865 182.422 173.427 182.422 175.407C182.422 177.387 182.576 178.96 182.884 180.126C183.192 181.292 183.61 182.139 184.138 182.667C184.666 183.173 185.26 183.426 185.92 183.426ZM195.645 186V183.789C197.603 181.897 199.286 180.214 200.694 178.74C202.124 177.244 203.224 175.891 203.994 174.681C204.764 173.449 205.149 172.305 205.149 171.249C205.149 170.149 204.852 169.269 204.258 168.609C203.664 167.949 202.806 167.619 201.684 167.619C200.87 167.619 200.122 167.85 199.44 168.312C198.78 168.774 198.164 169.324 197.592 169.962L195.48 167.85C196.448 166.816 197.449 166.024 198.483 165.474C199.517 164.902 200.749 164.616 202.179 164.616C204.203 164.616 205.809 165.199 206.997 166.365C208.207 167.531 208.812 169.093 208.812 171.051C208.812 172.283 208.46 173.548 207.756 174.846C207.074 176.122 206.15 177.431 204.984 178.773C203.84 180.115 202.575 181.523 201.189 182.997C201.739 182.953 202.333 182.909 202.971 182.865C203.609 182.799 204.181 182.766 204.687 182.766H209.835V186H195.645ZM212.564 186V183.789C214.522 181.897 216.205 180.214 217.613 178.74C219.043 177.244 220.143 175.891 220.913 174.681C221.683 173.449 222.068 172.305 222.068 171.249C222.068 170.149 221.771 169.269 221.177 168.609C220.583 167.949 219.725 167.619 218.603 167.619C217.789 167.619 217.041 167.85 216.359 168.312C215.699 168.774 215.083 169.324 214.511 169.962L212.399 167.85C213.367 166.816 214.368 166.024 215.402 165.474C216.436 164.902 217.668 164.616 219.098 164.616C221.122 164.616 222.728 165.199 223.916 166.365C225.126 167.531 225.731 169.093 225.731 171.051C225.731 172.283 225.379 173.548 224.675 174.846C223.993 176.122 223.069 177.431 221.903 178.773C220.759 180.115 219.494 181.523 218.108 182.997C218.658 182.953 219.252 182.909 219.89 182.865C220.528 182.799 221.1 182.766 221.606 182.766H226.754V186H212.564Z" fill="#FF5C00"/>
</svg>
